<svg width="500" height="500" viewBox="0 0 500 500" fill="none" xmlns="http://www.w3.org/2000/svg">
<g clip-path="url(#clip0_78_2)">
<rect width="500" height="500" fill="white"/>
<g clip-path="url(#clip1_78_2)">
<path d="M500 249.966C499.19 253.106 496.661 253.714 494.064 254.018C484.183 255.098 474.639 257.461 465.634 261.749C425.367 280.959 396.735 310.837 382.132 353.477C380.547 358.069 379.805 362.897 379.333 367.758C378.76 373.869 374.713 378.46 368.71 379.068C348.239 381.229 330.804 390.479 314.38 402.026C289.086 419.818 270.943 443.315 259.375 471.978C257.014 477.853 255.564 483.997 254.755 490.277C254.485 492.505 254.013 494.733 253.406 496.894C252.967 498.447 252.057 500 250.101 499.966C248.178 499.966 247.369 498.447 246.796 496.86C246.56 496.252 246.222 495.679 246.189 495.071C244.368 473.835 234.79 455.841 222.784 438.825C205.011 413.707 181.674 395.679 153.21 384.2C147.342 381.837 141.272 380.182 134.965 379.473C124.78 378.325 121.914 375.354 120.531 365.024C118.305 348.447 111.021 333.896 102.016 320.088C83.2317 291.222 57.9046 270.459 25.6302 258.305C19.3912 255.942 12.8486 254.794 6.2386 254.018C4.75472 253.849 3.33829 253.646 2.09048 252.802C-0.607485 250.945 -0.742383 248.953 2.05675 247.13C2.96732 246.523 4.11395 246.117 5.19314 245.982C28.2944 243.788 47.6186 232.917 65.5938 219.21C89.4708 200.979 106.637 177.718 117.024 149.494C118.811 144.632 119.991 139.568 120.565 134.402C121.61 124.814 124.949 121.573 134.527 120.493C150.984 118.602 165.351 111.344 179.111 102.6C206.293 85.3477 226.021 61.7151 239.241 32.4781C242.917 24.3079 245.042 15.6313 246.088 6.71843C246.189 5.90817 246.088 5.06415 246.357 4.3214C246.964 2.32951 247.605 0 250.202 0C252.529 0 253.203 2.1607 253.912 3.98379C254.08 4.42269 254.148 4.9291 254.181 5.40176C256.137 26.2323 265.445 44.0243 277.249 60.7022C295.797 86.9345 320.113 105.773 350.263 116.88C355.557 118.839 361.088 120.358 366.821 120.527C373.735 120.695 379.063 126.907 379.67 133.592C381.222 150.608 388.877 165.429 398.017 179.541C416.767 208.406 441.993 229.237 474.2 241.492C480.608 243.923 487.285 245.003 494.064 245.881C496.661 246.219 499.224 246.759 500 249.932V249.966ZM129.232 368.062C128.355 370.493 129.704 371.033 132.47 370.729C141.238 369.784 149.703 367.556 157.696 363.943C186.732 350.878 210.272 331.33 227.472 304.288C236.51 290.074 243.491 275.152 245.953 258.305C246.492 254.591 245.818 253.376 241.872 254.085C233.576 255.604 225.347 257.36 217.624 260.837C187.744 274.24 163.867 294.598 146.499 322.519C137.865 336.394 131.121 350.945 129.198 368.062H129.232ZM129.097 131.263C130.547 142.64 133.279 152.397 137.832 161.614C151.726 189.872 171.691 212.66 198.637 229.169C211.992 237.34 226.021 243.585 241.703 245.712C245.278 246.185 246.762 245.881 245.986 241.796C244.705 234.943 243.457 228.089 240.826 221.607C228.416 191.02 208.417 166.678 180.797 148.616C166.295 139.129 150.984 131.668 133.582 129.44C131.593 129.169 128.119 127.684 129.097 131.263ZM368.305 370.83C370.261 371.337 371.206 370.459 370.835 367.454C370.093 361.816 369.182 356.246 367.226 350.912C356.03 320.223 336.975 295.544 310.299 276.705C294.381 265.463 277.485 256.685 257.857 254.153C255.025 253.781 253.743 253.849 254.35 257.394C255.632 265.091 257.149 272.721 260.151 279.912C273.843 312.492 296.034 337.643 326.352 355.672C339.134 363.268 352.59 368.94 368.339 370.83H368.305ZM370.902 131.296C372.049 128.427 369.452 129.136 367.563 129.338C359.469 130.216 351.612 132.14 344.158 135.415C314.515 148.346 290.503 168.028 272.966 195.442C263.725 209.892 256.643 225.118 254.35 242.302C253.945 245.408 254.417 246.253 257.689 245.746C264.602 244.733 271.415 243.349 277.89 240.749C314.346 226.131 341.258 200.945 359.773 166.475C365.574 155.706 369.519 144.294 370.902 131.263V131.296Z" fill="#070707"/>
</g>
</g>
<defs>
<clipPath id="clip0_78_2">
<rect width="500" height="500" fill="white"/>
</clipPath>
<clipPath id="clip1_78_2">
<rect width="500" height="500" fill="white"/>
</clipPath>
</defs>
</svg>
