<svg width="500" height="500" viewBox="0 0 500 500" fill="none" xmlns="http://www.w3.org/2000/svg">
<g clip-path="url(#clip0_55_291)">
<rect width="500" height="500" fill="white"/>
<path d="M249.999 0C315.598 28.6621 358 74.1707 358 125.415C358 131.609 357.378 137.719 356.173 143.727C362.157 142.531 368.244 141.914 374.414 141.914C425.658 141.914 471.166 184.315 499.828 249.913C471.166 315.512 425.657 357.914 374.413 357.914C368.243 357.914 362.157 357.297 356.173 356.102C357.378 362.109 358 368.22 358 374.415C358 425.659 315.6 471.167 250.002 499.829C184.402 471.167 142 425.659 142 374.414C142 368.207 142.623 362.084 143.833 356.065C137.791 357.285 131.645 357.914 125.414 357.914C74.1705 357.914 28.6621 315.514 0 249.916C28.662 184.316 74.1705 141.914 125.415 141.914C131.646 141.914 137.792 142.542 143.833 143.762C142.623 137.743 142 131.621 142 125.414C142 74.1702 184.401 28.6621 249.999 0Z" fill="black"/>
</g>
<defs>
<clipPath id="clip0_55_291">
<rect width="500" height="500" fill="white"/>
</clipPath>
</defs>
</svg>
